<svg width="32" height="32" viewBox="0 0 32 32" fill="none" xmlns="http://www.w3.org/2000/svg">
  <!-- Background -->
  <rect width="32" height="32" rx="6" fill="#0ea5e9"/>

  <!-- Book Icon -->
  <g transform="translate(7, 5)">
    <!-- Open book pages -->
    <!-- Left page -->
    <path
      d="M 0 3 Q 0 0, 8 0 L 8 18 Q 0 18, 0 15 Z"
      fill="#fff"
      opacity="0.9"
    />
    <path
      d="M 0 3 Q 0 0, 8 0 L 8 18 Q 0 18, 0 15 Z"
      stroke="#a855f7"
      stroke-width="1.5"
      fill="none"
    />

    <!-- Right page -->
    <path
      d="M 18 3 Q 18 0, 10 0 L 10 18 Q 18 18, 18 15 Z"
      fill="#fff"
      opacity="0.9"
    />
    <path
      d="M 18 3 Q 18 0, 10 0 L 10 18 Q 18 18, 18 15 Z"
      stroke="#a855f7"
      stroke-width="1.5"
      fill="none"
    />

    <!-- Text lines on left page -->
    <line x1="2" y1="5" x2="7" y2="5" stroke="#a855f7" stroke-width="0.8" opacity="0.6"/>
    <line x1="2" y1="7" x2="7" y2="7" stroke="#a855f7" stroke-width="0.8" opacity="0.6"/>
    <line x1="2" y1="9" x2="6" y2="9" stroke="#a855f7" stroke-width="0.8" opacity="0.6"/>
    <line x1="2" y1="11" x2="7" y2="11" stroke="#a855f7" stroke-width="0.8" opacity="0.6"/>

    <!-- Text lines on right page -->
    <line x1="11" y1="5" x2="16" y2="5" stroke="#a855f7" stroke-width="0.8" opacity="0.6"/>
    <line x1="11" y1="7" x2="16" y2="7" stroke="#a855f7" stroke-width="0.8" opacity="0.6"/>
    <line x1="12" y1="9" x2="16" y2="9" stroke="#a855f7" stroke-width="0.8" opacity="0.6"/>
    <line x1="11" y1="11" x2="16" y2="11" stroke="#a855f7" stroke-width="0.8" opacity="0.6"/>

    <!-- Center binding -->
    <line x1="9" y1="0" x2="9" y2="18" stroke="#a855f7" stroke-width="2"/>
  </g>
</svg>
